<svg width="571" height="1037" viewBox="0 0 571 1037" fill="none" xmlns="http://www.w3.org/2000/svg">
<path d="M412.806 4.49685C433.286 -2.22792 455.686 -1.26672 472.006 6.41872C500.806 20.5087 515.526 54.4522 515.206 105.368C514.886 200.155 459.526 337.533 361.926 486.759C331.206 533.832 288.646 591.153 254.086 633.102L229.446 662.563L224.006 697.147C216.326 748.384 216.325 884.16 223.685 911.38C231.685 939.559 240.326 955.251 254.086 965.818C271.046 978.947 299.526 978.306 328.645 964.537C394.885 933.475 474.245 846.693 553.605 718.602C561.925 704.833 569.606 694.586 570.246 695.226C574.724 699.712 527.365 797.059 496.006 847.654C387.526 1023.14 264.966 1082.7 182.086 999.761C145.606 963.576 123.846 889.284 123.846 800.901C123.846 771.44 121.926 766.957 113.926 776.564C106.885 785.211 56.6451 826.84 32.6454 844.132C-5.75439 871.671 -9.91396 872.311 18.246 846.373C33.286 832.603 62.7258 804.424 83.8456 783.609L122.565 745.822L128.006 689.142C145.926 503.731 199.366 307.431 270.406 168.133C317.446 74.9468 366.406 18.9071 412.806 4.49685ZM464.326 64.7C456.006 53.8123 445.445 52.2109 432.645 60.2166C371.525 98.9645 303.686 277.971 251.846 537.675C244.806 573.54 239.365 605.243 239.685 607.804C242.566 622.214 345.606 462.101 387.846 377.561C441.926 269.325 470.085 178.7 470.725 111.133C471.045 78.1497 470.406 72.7054 464.326 64.7Z" fill="#D9D9D9"/>
</svg>
